<svg xmlns="http://www.w3.org/2000/svg" width="28" height="28" viewBox="0 0 28 28" fill="none"><metadata><rdf:RDF xmlns:rdf="http://www.w3.org/1999/02/22-rdf-syntax-ns#" xmlns:dc="http://purl.org/dc/elements/1.1/"><rdf:Description><dc:creator>RealFaviconGenerator</dc:creator><dc:source>https://realfavicongenerator.net</dc:source></rdf:Description></rdf:RDF></metadata><g clip-path="url(#clip0_0_1)">
<path fill-rule="evenodd" clip-rule="evenodd" d="M21.8844 14.4497C21.4269 14.3381 20.0395 14.3897 19.4861 14.3897H18.4668L17.5075 14.4497H14.9293L13.9101 14.5096H12.1114C11.9069 14.5096 11.5082 14.5462 11.3505 14.4137C11.1892 14.2776 11.2126 14.0408 11.212 13.8501V11.8715C11.212 11.6772 11.1832 11.1934 11.2732 11.0411C11.3919 10.8402 11.6083 10.8534 11.8116 10.8522H12.8908L13.7902 10.7923H26.5011C26.7397 10.7923 27.202 10.7383 27.3645 10.9308C27.4808 11.0687 27.4568 11.2833 27.461 11.4518L27.5203 12.2912L27.5779 13.3704C27.5521 13.8597 27.1804 14.0719 26.8608 14.3897L24.8822 16.3083L22.3041 18.769L19.606 21.4023L16.6081 24.2826L14.1499 26.621C13.937 26.8332 13.5317 27.3489 13.196 27.2337C12.9891 27.163 12.5155 26.5694 12.3482 26.3811L10.2959 24.0428L3.2287 16.0086L0.770437 13.2109C0.599559 13.0166 0.0725356 12.5082 0.104313 12.254C0.1223 12.1077 0.264998 11.9794 0.365127 11.8829L1.19913 11.1472L4.3169 8.44911L11.152 2.53074L12.7109 1.17631C12.9375 0.97965 12.7338 1.13438 13 1.02945C13.2272 0.940115 14.7332 0.996996 15 0.999994H15.5L16.5 0.999998L17.5 1C17.8106 1.0012 18.3805 0.953912 18.6916 1.02946C18.5657 1.45755 18.1179 1.77892 17.7923 2.06552L15.8737 3.80428L12.3961 6.96522L8.91863 10.1262L7 11.8715C6.81113 12.0424 6.24454 12.5047 6.17559 12.7211C6.10844 12.9316 5.83564 13.1012 5.96095 13.2505L7.25782 14.7495L11.9405 20.1456L13.0875 21.4647C13.2068 21.599 13.4094 21.8472 13.6103 21.8214C13.7644 21.801 14.1409 21.4503 14.2698 21.3352L15.7687 19.9909L19.546 16.6249C20.1096 16.1291 21.4917 14.9689 21.8844 14.4497Z" fill="url(#paint0_linear_0_1)"></path>
</g><defs>
<linearGradient id="paint0_linear_0_1" x1="0.402739" y1="0.773515" x2="26.8705" y2="27.9395" gradientUnits="userSpaceOnUse">
<stop stop-color="#4EDEA3"></stop>
<stop offset="1" stop-color="#10B981"></stop>
</linearGradient>
<clipPath id="clip0_0_1">
<rect width="28" height="28" fill="white"></rect>
</clipPath>
</defs></svg>