<svg xmlns="http://www.w3.org/2000/svg" viewBox="0 0 600 600" width="600" height="600"><rect width="100%" height="100%" fill="none"></rect><g transform="translate(0,25)">
    <path fill="#30d1a1" fill-rule="evenodd" d="M296 9.52c8.61-1.34 16.05 2.52 24 5.43l34 11.33L398 41l114 38.33 47 16c4.3 1.44 15.53 4.41 17.82 8.06 4.91 7.78-7.73 11.02-11.71 14.82-4.38 4.18-4.1 7.23-4.11 12.79v54c.01 3.39-.18 6.85 1.31 10 1.87 3.94 4.61 5.28 6.47 11l6.35 42c.51 3.65 2.66 16.23 2.13 19-1.08 5.64-6.3 7.83-11.26 9.24-9.41 2.28-16.56 2.56-26 0-4.27-.97-8.58-2.06-10.83-6.28-2.43-4.58.21-16.56.96-21.96l6.31-41c2.06-6.61 4.81-7.35 7.11-12 1.64-3.33 1.44-6.41 1.45-10v-48c-.05-3.37-.05-7.89-4.11-8.96-3.12-.83-9.82 2.33-12.89 3.56l-28 11.45c-3.56 1.33-11.3 4.05-13.35 7.16-4.81 7.32 13.88 15.13 11.51 22.58-1.29 4.03-15.98 8.94-20.16 10.61l-33 13.59-16 6.31c-5.73 2.58-15.94 8.03-22 5.42-3.88-1.67-8.54-6.32-12-9.06-5.7-4.5-11.75-8.51-18-12.21-17.27-10.22-46.89-18.42-67-18.45-21.82-.03-38.82.3-60 7.35-36.21 12.07-65.43 39.34-77.92 75.65-7.18 20.84-8.33 37.3-8.08 59l1.73 15c7.03 48.73 39.01 87.99 85.27 104.95 11.21 4.11 33.17 9.03 45 9.05h27c16.1-.19 43.23-7.33 58-13.86 5.31-2.35 15.08-6.57 17.26-12.15.87-2.23.74-5.59.74-7.99v-28c-.02-3.4.18-6.96-2.43-9.57-2.79-2.79-6.95-2.42-10.57-2.43h-94c-7.51-.11-8.89-1.49-9-9v-65c.02-9.75 1.48-9.98 11-10h207c2.99 0 7.16-.31 9.57 1.74 2.84 2.41 2.42 6.89 2.43 10.26v150c-.13 9.27-4.7 13.69-11 20-9.46 9.45-20.03 17.95-31 25.57l-18 10.73c-48.78 26.79-100.83 36.34-156 35.7l-10-1.04h-10c-48.82-4.78-101.7-22.2-140-53.42C90.37 443.52 66.15 392.02 59.84 333L58 313c-.45-38.73 4-75.4 20.31-111 5.53-12.08 13.4-24.35 21.32-35 2.07-2.78 9.56-11.27 9.1-14.41-.67-4.58-12.71-8.15-16.73-9.87l-56-22.3c-5.42-2.06-19.99-5.74-20.46-12.41-.43-5.98 10.04-8.85 14.46-10.34l50-17L215 36l48-16z"></path>
  </g></svg>